# xmcd CD database file
#
# Track frame offsets:
#	150
#	19918
#	40132
#	61962
#	76213
#	96594
#
# Disc length: 1617 seconds
#
# Revision: 0
# Processed by: cddbd v1.5.2PL0 Copyright (c) Steve Scherf et al.
# Submitted via: CDex 1.51
#
DISCID=46064f06
DTITLE=Blueprint - ...es ist immer einer besser
DYEAR=2006
DGENRE=Blues
TTITLE0=unchain my heart
TTITLE1=bring me some water
TTITLE2=radio orchid
TTITLE3=ich lebe
TTITLE4=es ist immer einer besser
TTITLE5=still got the blues
EXTD=YEAR: 2006
EXTT0=
EXTT1=
EXTT2=
EXTT3=
EXTT4=
EXTT5=
PLAYORDER=
